<svg width="33" height="47" viewBox="0 0 33 47" fill="none" xmlns="http://www.w3.org/2000/svg">
<path fill-rule="evenodd" clip-rule="evenodd" d="M21.2358 5.75156C22.5073 6.81355 23.5325 8.16803 24.2334 9.71181C24.9342 11.2556 25.2921 12.9479 25.2799 14.6599V30.5242C25.2703 32.2874 24.9045 34.0281 24.2071 35.6301C23.5098 37.2321 22.4968 38.6586 21.2358 39.8142C23.1137 39.1589 24.7505 37.8997 25.9171 36.213C27.0836 34.5264 27.7214 32.4966 27.7413 30.408V14.5437C27.7593 12.5169 27.1256 10.5436 25.9439 8.94655C24.7622 7.34947 23.1024 6.22308 21.2358 5.75156ZM23.0305 14.766V30.6304C23.0071 33.1712 22.068 35.6072 20.4043 37.4428C18.7406 39.2783 16.4772 40.3756 14.0746 40.5112C12.9157 40.5779 11.7562 40.3931 10.6675 39.9682C9.57888 39.5432 8.58426 38.8871 7.74503 38.0405C6.90581 37.1938 6.2398 36.1744 5.7881 35.0454C5.3364 33.9163 5.10859 32.7014 5.11875 31.4757V15.6113C5.1421 13.0705 6.08117 10.6345 7.7449 8.79893C9.40863 6.96339 11.672 5.8662 14.0746 5.73059C15.2335 5.66387 16.393 5.84869 17.4817 6.27363C18.5703 6.69858 19.5649 7.35463 20.4042 8.2013C21.2434 9.04798 21.9094 10.0673 22.3611 11.1964C22.8128 12.3254 23.0406 13.5403 23.0305 14.766ZM14.0746 3.35492L19.3599 3.10544V3.12069C20.7635 3.11909 22.1536 3.41137 23.4496 3.98063C24.7456 4.5499 25.9219 5.38485 26.9105 6.43721C27.8991 7.48958 28.6803 8.73847 29.209 10.1117C29.7377 11.4849 30.0034 12.9552 29.9907 14.4375V30.3019C29.9616 33.3761 28.8618 36.3315 26.901 38.6039C24.9401 40.8763 22.2557 42.3067 19.3599 42.622V42.6374L14.0746 42.8868L14.0841 42.8863L14.0746 42.8868C12.6246 42.9702 11.1738 42.739 9.81178 42.2073C8.4497 41.6756 7.20526 40.8548 6.15525 39.7954C5.10524 38.7361 4.27194 37.4607 3.70679 36.048C3.14163 34.6354 2.85661 33.1154 2.86931 31.5818V15.7175C2.89848 12.5384 4.0734 9.49055 6.15503 7.19395C8.23665 4.89735 11.0686 3.52457 14.0746 3.35492H14.0746ZM32.859 14.7754C32.8816 12.7648 32.5108 10.7709 31.7697 8.91869C31.0286 7.06648 29.9333 5.39586 28.5524 4.01153C27.1715 2.6272 25.5347 1.55899 23.7447 0.873833C21.9547 0.188679 20.0499 -0.0986506 18.1498 0.0298481L14.3904 0.241608C6.44979 0.688773 0.000971406 7.87743 0.000971406 16.2874V31.2288C-0.0215963 33.2394 0.349278 35.2332 1.09036 37.0854C1.83143 38.9376 2.92674 40.6082 4.30765 41.9925C5.68856 43.3768 7.32531 44.445 9.11533 45.1302C10.9054 45.8153 12.8101 46.1026 14.7102 45.9742L18.4695 45.7625C26.4102 45.3153 32.859 38.1267 32.859 29.7169L32.859 14.7754Z" fill="black"/>
</svg>
